# xmcd
#
# Track frame offsets: 
#        150
#        11944
#        30607
#        46246
#        62565
#
# Disc length: 1119 seconds
#
# Revision: 0
# Processed by: cddbd v1.5.1PL0 Copyright (c) Steve Scherf et al.
# Submitted via: ExactAudioCopy v0.95a5
#
DISCID=39045d05
DTITLE=Montana Holt - Montana Holt
DYEAR=1998
DGENRE=Country
TTITLE0=Rush
TTITLE1=Somewhere
TTITLE2=Leonardo's Mona Lisa
TTITLE3=Two Different People
TTITLE4=Special Love
EXTD=
EXTT0=
EXTT1=
EXTT2=
EXTT3=
EXTT4=
PLAYORDER=
